<?xml version="1.0" standalone="no"?><!DOCTYPE svg PUBLIC "-//W3C//DTD SVG 1.1//EN" "http://www.w3.org/Graphics/SVG/1.1/DTD/svg11.dtd"><svg t="1487641631674" class="icon" style="" viewBox="0 0 1024 1024" version="1.1" xmlns="http://www.w3.org/2000/svg" p-id="4162" xmlns:xlink="http://www.w3.org/1999/xlink" width="200" height="200"><defs><style type="text/css"></style></defs><path d="M771.146155 252.864078c-143.114488-143.115512-375.165542-143.115512-518.28003 0-143.115512 143.114488-143.115512 375.157355 0 518.271844 143.114488 143.115512 375.165542 143.115512 518.28003 0C914.245294 628.021433 914.245294 395.978567 771.146155 252.864078zM700.277084 692.638103c-9.540284 9.247618-25.012673 9.247618-34.558074 0L512.574075 545.750685 358.834598 693.228551c-9.543354 9.247618-25.01779 9.247618-34.558074 0-9.543354-9.247618-9.543354-24.237007 0-33.484625l153.72208-147.465586L323.722916 364.259144c-9.543354-9.247618-9.543354-24.241101 0-33.488719 9.540284-9.247618 25.01472-9.247618 34.558074 0l154.293085 148.035568 152.919808-146.663314c9.543354-9.244548 25.015743-9.244548 34.559097 0 9.53926 9.247618 9.53926 24.240077 0 33.487695L547.145451 512.278339l153.131633 146.874115C709.820438 668.397003 709.820438 683.390485 700.277084 692.638103z" p-id="4163"></path></svg>