<?xml version="1.0" standalone="no"?><!DOCTYPE svg PUBLIC "-//W3C//DTD SVG 1.1//EN" "http://www.w3.org/Graphics/SVG/1.1/DTD/svg11.dtd"><svg t="1487640904698" class="icon" style="" viewBox="0 0 1024 1024" version="1.1" xmlns="http://www.w3.org/2000/svg" p-id="3124" xmlns:xlink="http://www.w3.org/1999/xlink" width="200" height="200"><defs><style type="text/css"></style></defs><path d="M517.216 48.517c-253.018 0-458.032 205.012-458.032 458.032s205.244 458.032 458.032 458.032c253.018 0 458.032-205.012 458.032-458.032 0-252.786-205.012-458.032-458.032-458.032zM827.748 363.688l-413.967 351.116c-7.886 6.495-17.626 10.207-27.597 10.207-1.857 0-3.478-0.234-5.331-0.462-11.828-1.392-22.727-7.886-29.454-17.626l-135.205-191.563c-13.683-19.248-9.045-45.923 10.207-59.602 19.483-13.683 45.923-9.045 59.602 10.207l108.303 153.294 378.25-320.966c18.091-15.308 44.99-12.987 60.298 4.87 15.074 18.322 12.987 45.223-5.101 60.528z" p-id="3125"></path></svg>